<?xml version="1.0" encoding="utf-8"?>
<!-- Generator: Adobe Illustrator 22.0.0, SVG Export Plug-In . SVG Version: 6.00 Build 0)  -->
<svg version="1.1" id="Capa_1" xmlns="http://www.w3.org/2000/svg" xmlns:xlink="http://www.w3.org/1999/xlink" x="0px" y="0px"
	 viewBox="0 0 300 100" style="enable-background:new 0 0 300 100;" xml:space="preserve">
<style type="text/css">
	.st0{fill:#FFFFFF;}
</style>
<g>
	<path class="st0" d="M54.1,88.8c-23.4-0.7-40.6-20.7-39-43C16.8,23.1,35.7,6.9,57.3,8.1c23.6,1.2,39.6,21.3,38.3,42.6
		C94.3,73,75.7,89.3,54.1,88.8z M62.3,49.1c1.9,0.1,3.1,0.2,4.4,0.4c2.9,0.4,5.6,1.4,8,3.3c4.5,3.6,5.8,10.6,3.9,16.1
		c-0.8,2.5-2.4,4.5-4.1,6.4c-0.5,0.5-0.7,1.1-0.2,1.7c0.5,0.7,1.1,0.9,1.9,0.3c0.2-0.2,0.5-0.3,0.8-0.5c4.6-3.1,8.3-7.2,11.1-11.9
		c3.3-5.5,5.2-11.4,4.2-17.9c-2-14.2-9.5-24.3-22.9-29.6c-6-2.4-12.3-3.1-18.6-1.2c-8,2.4-15.2,9.3-14.2,19.4
		c0.4,3.9,1.6,7.6,4.3,10.5c3.6,3.8,8.1,4.8,13.1,4.1C56.9,49.8,59.9,49.4,62.3,49.1z"/>
	<path class="st0" d="M198,65.8c-0.2,1.3-0.5,2.7-0.7,4.1c-0.4,2.5-0.8,5-1.2,7.5c0,0.2-0.5,0.6-0.7,0.6c-0.9,0.1-1.8,0-2.7,0
		c-0.7,0-0.9-0.4-0.8-1c0.6-3.7,1.3-7.4,1.9-11.2c0.9-5.5,1.8-11.1,2.7-16.6c0.2-1.2,0.5-2.5,0.7-3.7c0.2-0.9,0.6-1.3,1.5-1.3
		c3.2-0.1,6.4-0.4,9.7-0.4c3.8,0,5.8,1.5,6.5,5.2c1,5.1,0.4,10-2.5,14.4c-2,3-5,4.1-8.6,3.5C201.9,66.7,200,66.2,198,65.8z
		 M203.6,63.2c2.6,0,4.7-0.7,5.8-3.2c0.3-0.6,0.5-1.2,0.7-1.9c0.7-2.5,1.2-5.1,0.7-7.7c-0.3-1.8-1.3-2.9-3.3-2.8
		c-1.5,0.1-3.1,0-4.6,0c-1.8,0-1.8,0-2.1,1.7c-0.7,3.9-1.4,7.9-2.1,11.8c-0.1,0.6,0,1,0.7,1.1C200.8,62.6,202.2,62.9,203.6,63.2z"/>
	<path class="st0" d="M162.7,62.7c2.6,0,5.3,0,7.9,0c0.8,0,1,0.2,0.9,1c-0.1,0.5,0,1-0.1,1.4c-0.1,0.4-0.5,0.8-0.8,0.9
		c-3.7,0.8-7.4,1.4-11.2,1.1c-2.5-0.2-5-1.9-5.3-5.5c-0.3-4.5,0.5-8.8,2.2-12.9c1.1-2.6,3.2-4.1,5.9-4.7c2.5-0.6,5.1-0.6,7.6,0
		c4,1,5.5,3.7,4.3,7.7c-1,3.6-3.7,5.1-7.1,5.9c-2.2,0.5-4.4,0.7-6.7,0.3c-0.4-0.1-0.8-0.1-1.2-0.1c-0.3,0.1-0.7,0.3-0.7,0.6
		c-0.1,0.8-0.3,1.7-0.1,2.6c0.3,1.7,1,2.2,2.8,2.1c0.5,0,1.1,0,1.6,0C162.7,62.8,162.7,62.7,162.7,62.7z M159,54
		c2.2,0,4.2,0.1,6.1,0c1.4-0.1,2.7-0.7,3.8-1.6c1-0.8,1.5-2.4,1-3.6c-0.2-0.4-0.7-0.9-1-0.9c-1.7-0.1-3.4-0.2-5-0.2
		c-1.1,0-2,0.5-2.7,1.3C159.9,50.4,159.5,52.2,159,54z"/>
	<path class="st0" d="M233.8,66.6c-2.4,0.4-2.9,0.2-3.8-2c-0.3,0.1-0.6,0.2-0.9,0.4c-2.1,1.1-4.3,2.1-6.8,2.1
		c-3.6,0.1-6.3-2.3-6.6-5.8c-0.3-4.1,0.2-8.2,1.9-12.1c1.7-3.8,4.7-5.6,8.8-5.7c3.3-0.1,6.5,0.5,9.5,2.2c0.6,0.3,0.8,0.7,0.7,1.4
		c-0.7,4.3-1.3,8.6-1.9,13C234.5,62.2,234.1,64.4,233.8,66.6z M227.8,47.2c-3,0.1-4.9,1-5.9,3.2c-1.5,3.2-2.1,6.6-1.7,10.1
		c0.2,1.5,1.3,2.5,2.8,2.5c2.2-0.1,4.3-0.5,6.2-1.6c0.5-0.3,1-0.8,1.1-1.3c0.6-3.8,1.2-7.7,1.7-11.5c0-0.2-0.4-0.7-0.6-0.7
		C230.2,47.6,229,47.4,227.8,47.2z"/>
	<path class="st0" d="M271.8,67c-1.1-0.1-2.4-0.2-3.7-0.5c-3.1-0.7-5-2.9-5.2-6.1c-0.2-4.1,0.5-8.1,2.2-11.8
		c1.1-2.5,3.1-4.2,5.9-4.5c2.1-0.2,4.2-0.5,6.3-0.2c4.7,0.6,6.9,4,6.7,8.4c-0.1,3.3-0.9,6.4-2.1,9.5c-1.2,2.9-3.5,4.4-6.5,5
		C274.4,66.9,273.2,66.9,271.8,67z M279.7,52.7c-0.1,0-0.2,0-0.3-0.1c0.4-3.1-0.7-4.7-3.7-4.8c-0.1,0-0.2,0-0.3-0.1
		c-3.9-0.3-5.7,0.3-6.8,3.7c-0.7,2.3-1.2,4.8-1.4,7.3c-0.2,2.5,0.4,3.7,3.5,4.1c0.9,0.1,1.9,0,2.9,0c2.4,0,4.1-1.2,4.7-3.5
		C278.8,57.1,279.2,54.9,279.7,52.7z"/>
	<path class="st0" d="M179.7,53.3c1.4,0,2.7,0,3.9,0c1.7,0,3.5,0.1,5.2,0.2c2.3,0.2,4.1,2,4,4.3c-0.1,1.7-0.3,3.4-0.7,5
		c-0.8,3-2.4,4.3-5.6,4.3c-3,0-6-0.3-9-0.5c-0.8,0-1.7-0.1-2.5-0.2c-0.6,0-0.8-0.3-0.8-0.9c0-2.3,0.2-2.6,2.6-2.6c3.2,0,6.4,0,9.6,0
		c1,0,1.5-0.4,1.7-1.3c0.2-1.2,0.4-2.5,0.6-3.9c-1.5-0.1-2.8-0.1-4.1-0.2c-2-0.1-3.9-0.2-5.9-0.4c-2.2-0.3-3.6-2-3.4-4.2
		c0.1-1.7,0.4-3.4,0.8-5.1c0.7-2.9,2.7-4.3,5.9-4.3c2.9,0,5.8,0.3,8.7,0.5c1.1,0.1,2.2,0.2,3.4,0.3c-0.1,1-0.2,1.9-0.4,2.8
		c-0.1,0.7-0.7,0.6-1.2,0.6c-3.3,0-6.6,0-9.9,0c-2.1,0-2.1,0-2.6,2.1c0,0.2-0.1,0.4-0.1,0.6C179.8,51.3,179.8,52.2,179.7,53.3z"/>
	<path class="st0" d="M131.6,64.5c-1.1,0.5-2.2,1.1-3.3,1.6c-1.7,0.8-3.5,1.3-5.5,1.1c-3.6-0.3-5.9-3.2-5.4-6.8
		c0.8-5.2,1.7-10.3,2.5-15.5c0.1-0.6,0.3-0.9,1-0.8c1.1,0.1,2.1,0,3.3,0c-0.2,1.4-0.4,2.7-0.6,4c-0.6,3.9-1.2,7.9-1.7,11.8
		c0,0.3,0,0.7,0,1c0.1,1.7,0.6,2.2,2.2,2.2c2.6,0,5.1-0.6,7.4-1.9c0.4-0.2,0.6-0.8,0.7-1.2c0.5-2.9,1-5.9,1.4-8.8
		c0.3-2.1,0.6-4.2,1-6.3c0.1-0.3,0.4-0.8,0.7-0.8c1.1-0.1,2.3,0,3.6,0c-0.2,1.7-0.4,3.3-0.7,4.9c-0.6,4.1-1.3,8.2-1.9,12.3
		c-0.3,1.6-0.6,3.2-0.9,4.8c-0.1,0.6-0.4,1-1,0.8c-0.1,0-0.2,0-0.3,0c-1.8,0-1.8,0-2.3-1.8C131.8,64.8,131.7,64.7,131.6,64.5z"/>
	<path class="st0" d="M249.9,47.7c-1.4,0-2.8,0-4.2,0c-0.9,0-1.6,0.4-2.1,1.1c-1.3,2.1-1.9,4.4-2.2,6.7c-0.3,1.6-0.4,3.2-0.2,4.8
		c0.2,2.1,1.1,2.5,3.1,2.5c2.8-0.1,5.6-0.2,8.5-0.3c1.2,0,1.2,0,1,1.2c-0.1,1.3-0.8,2.1-2.1,2.3c-3,0.5-6,1.1-9.2,0.8
		c-2.3-0.2-4.8-1.7-5.3-4.9c-0.9-5.4,0.2-10.5,2.8-15.3c1.6-3,4.5-3.6,7.6-3.3c2.6,0.3,5.2,0.8,7.9,1.1c0.9,0.1,1.1,0.6,0.9,1.4
		c0,0.2-0.1,0.4-0.1,0.6c-0.3,1.4-0.4,1.4-1.9,1.4c-1.5-0.1-2.9,0-4.4,0C249.9,47.9,249.9,47.8,249.9,47.7z"/>
	<path class="st0" d="M118.9,43.9c-0.2,1.3-0.3,2.4-0.6,3.5c0,0.2-0.6,0.4-0.9,0.4c-1.4,0-2.8,0-4.2,0c-0.6,0-0.8,0.2-0.9,0.8
		c-1,4.1-1.5,8.3-1.7,12.6c0,1,0.3,1.5,1.3,1.7c0.9,0.2,1.7,0.4,2.6,0.7c0.6,0.2,0.8,0.5,0.6,1.1c-0.1,0.3-0.1,0.7-0.2,1
		c-0.1,0.8-0.5,1.2-1.4,1.2c-1,0-2,0.1-3,0c-2.9-0.3-4.8-2.4-4.6-5.4c0.1-2.1,0.5-4.3,0.8-6.4c0.3-2.1,0.6-4.2,0.9-6.3
		c0-0.3,0-0.5,0-0.9c-0.9,0-1.8,0-2.7,0c-0.9,0-1.2-0.3-1-1.2c0.4-1.6,0.7-2.1,2.4-2.2c1.6-0.1,2.3-0.9,2.6-2.3
		c0.3-1.2,0.7-2.3,1-3.4c0.2-0.7,0.6-1,1.3-0.9c0.7,0.1,1.5,0,2.4,0c-0.3,2.1-0.5,4.1-0.8,6.2C115,43.9,116.8,43.9,118.9,43.9z"/>
	<path class="st0" d="M138,66.7c0.3-1.6,0.5-3.2,0.8-4.7c0.8-5.4,1.6-10.7,2.5-16.1c0.4-2.2,0-1.8,1.8-1.9c1.9-0.2,1.9-0.1,2.1,1.8
		c0,0.2,0.1,0.3,0.1,0.7c0.6-0.3,1.2-0.5,1.8-0.8c1.9-0.9,3.8-1.8,6-2c0.6-0.1,1.3,0,1.9,0c1.6,0.2,1.8,0.5,1.5,2.1
		c-0.5,2.4-0.5,2.3-2.9,2.3c-1.5,0-3.1,0.2-4.6,0.5c-2.7,0.5-4.4,2-4.7,5c-0.4,4.1-1.3,8.2-1.9,12.4c-0.1,0.7-0.3,0.9-0.9,0.8
		C140.4,66.8,139.3,66.7,138,66.7z"/>
	<path class="st0" d="M262.9,44.1c-0.6,3.6-1.1,7-1.6,10.4c-0.6,3.6-1.2,7.3-1.7,10.9c-0.2,1.4-0.2,1.4-1.7,1.4
		c-0.7,0-1.5,0-2.2-0.1c-0.2,0-0.6-0.5-0.5-0.7c0.7-4.8,1.5-9.6,2.2-14.3c0.4-2.3,0.7-4.6,1.1-6.9c0-0.3,0.4-0.7,0.7-0.7
		C260.3,44,261.5,44.1,262.9,44.1z"/>
	<path class="st0" d="M261.4,41.9c-2.7,0-2.9-0.3-2.5-2.8c0.3-2.1,2.4-3.3,4.5-2.4c0.4,0.2,0.7,0.8,0.8,1.2c0,0.9-0.1,1.8-0.3,2.7
		C263.6,41.8,263.2,41.9,261.4,41.9z"/>
	<path class="st0" d="M58.5,21.3c4.2,0,7.5,1.6,10.4,4.3c5,4.6,8.3,10.3,10.4,16.7c0.2,0.6,0,1.4,0,2.1c-0.7-0.1-1.4,0-2-0.2
		c-3.7-1.4-7.4-0.9-11.1-0.1c-2.4,0.5-4.8,1.1-7.2,1.4c-6,0.8-11.2-2.2-13.1-7.4c-1.4-3.8-0.5-11,3.8-14.1
		C52.5,21.9,55.6,21.5,58.5,21.3z"/>
</g>
</svg>
